# xmcd CD database file
#
# Track frame offsets:
#	150
#	15126
#	26598
#	44810
#	61019
#	80253
#	100506
#	130022
#	151712
#	163757
#	186584
#	213150
#	234495
#	254563
#	284686
#	307028
#	323844
#	341003
#
# Disc length: 4751 seconds
#
# Revision: 0
# Processed by: cddbd v1.5.2PL0 Copyright (c) Steve Scherf et al.
# Submitted via: CDex 1.70beta2
#
DISCID=f2128d12
DTITLE=Michael Connelly - 9 Dragons Disc 1
DYEAR=2003
DGENRE=Audio Book
TTITLE0=9 Dragons Disc 1-01
TTITLE1=9 Dragons Disc 1-02
TTITLE2=9 Dragons Disc 1-03
TTITLE3=9 Dragons Disc 1-04
TTITLE4=9 Dragons Disc 1-05
TTITLE5=9 Dragons Disc 1-06
TTITLE6=9 Dragons Disc 1-07
TTITLE7=9 Dragons Disc 1-08
TTITLE8=9 Dragons Disc 1-09
TTITLE9=9 Dragons Disc 1-10
TTITLE10=9 Dragons Disc 1-11
TTITLE11=9 Dragons Disc 1-12
TTITLE12=9 Dragons Disc 1-13
TTITLE13=9 Dragons Disc 1-14
TTITLE14=9 Dragons Disc 1-15
TTITLE15=9 Dragons Disc 1-16
TTITLE16=9 Dragons Disc 1-17
TTITLE17=9 Dragons Disc 1-18
EXTD=YEAR: 2003
EXTT0=
EXTT1=
EXTT2=
EXTT3=
EXTT4=
EXTT5=
EXTT6=
EXTT7=
EXTT8=
EXTT9=
EXTT10=
EXTT11=
EXTT12=
EXTT13=
EXTT14=
EXTT15=
EXTT16=
EXTT17=
PLAYORDER=
